<?xml version="1.0" encoding="utf-8"?>
<!-- Generator: Adobe Illustrator 22.0.1, SVG Export Plug-In . SVG Version: 6.00 Build 0)  -->
<svg version="1.1" id="Layer_1" xmlns="http://www.w3.org/2000/svg" xmlns:xlink="http://www.w3.org/1999/xlink" x="0px" y="0px"
	 viewBox="0 0 544 159" style="enable-background:new 0 0 544 159;" xml:space="preserve">
<style type="text/css">
	.st0{filter:url(#Adobe_OpacityMaskFilter);}
	.st1{fill:#FFFFFF;}
	.st2{mask:url(#SVGID_1_);}
	.st3{fill:#D0D0D0;}
	.st4{fill:#F6EC44;}
	.st5{fill:#9D3EEC;}
	.st6{fill:#0D0D0D;}
	.st7{filter:url(#Adobe_OpacityMaskFilter_1_);}
	.st8{mask:url(#SVGID_2_);}
</style>
<image style="overflow:visible;" width="620" height="138" xlink:href="3EE08DA1.jpg"  transform="matrix(1 0 0 1 -199.9794 -499.4848)">
</image>
<g>
	<g>
		<text transform="matrix(1 0 0 1 701.3165 -438.4707)"><tspan x="0" y="0" class="st5" style="font-family:'Roboto-Medium'; font-size:94.6179px;">Prop</tspan><tspan x="200.9" y="0" class="st6" style="font-family:'Roboto-Medium'; font-size:94.6179px;">Direct</tspan></text>
	</g>
	<g>
		<defs>
			<filter id="Adobe_OpacityMaskFilter" filterUnits="userSpaceOnUse" x="798.4" y="-752.2" width="173.4" height="167.7">
				
					<feColorMatrix  type="matrix" values="-1 0 0 0 1  0 -1 0 0 1  0 0 -1 0 1  0 0 0 1 0" color-interpolation-filters="sRGB" result="source"/>
				<feFlood  style="flood-color:white;flood-opacity:1" result="back"/>
				<feBlend  in="source" in2="back" mode="normal"/>
			</filter>
		</defs>
		<mask maskUnits="userSpaceOnUse" x="798.4" y="-752.2" width="173.4" height="167.7" id="SVGID_1_">
			<g class="st0">
				<path class="st1" d="M836.8-569.7v-74.6c0,0,5.2-40.8,48.6-41.3c43.4-0.6,128,0,128,0V-572L836.8-569.7z"/>
			</g>
		</mask>
		<g class="st2">
			<g>
				<g>
					<path class="st3" d="M825.9-658.7c0-42.9,34.8-77.7,77.7-77.7c14.7,0,28.5,4.1,40.2,11.2c-15.3-16.6-37.3-27-61.6-27
						c-46.3,0-83.9,37.5-83.9,83.9c0,45.7,36.5,82.8,81.9,83.8C848.8-594.4,825.9-623.8,825.9-658.7z"/>
				</g>
				<g>
					
						<ellipse transform="matrix(0.7071 -0.7071 0.7071 0.7071 730.4144 446.0645)" class="st4" cx="903.7" cy="-658.7" rx="68.2" ry="68.2"/>
				</g>
			</g>
		</g>
		<g>
			<path class="st5" d="M884.5-609.9c-5.9,0-11.2-0.7-15.8-2.2c-4.6-1.4-8.5-3.5-11.7-6.2c-3.2-2.7-5.6-6-7.3-9.9
				c-1.7-3.9-2.5-8.4-2.5-13.3c0-4.7,0.8-9,2.5-13c1.7-4,4.1-7.4,7.3-10.3c3.2-2.9,7.1-5.1,11.7-6.8c4.6-1.6,9.9-2.4,15.8-2.4h39
				v102h-17.7v-37.9H884.5z M905.8-659.7h-21.3c-3.4,0-6.3,0.5-8.8,1.5c-2.5,1-4.5,2.4-6.1,4.1c-1.6,1.7-2.7,3.7-3.5,5.8
				c-0.7,2.2-1.1,4.5-1.1,6.9c0,2.5,0.4,4.8,1.1,7c0.7,2.1,1.9,4,3.5,5.5c1.6,1.5,3.6,2.7,6.1,3.6c2.5,0.8,5.4,1.3,8.8,1.3h21.3
				V-659.7z"/>
		</g>
		<path class="st6" d="M1006.5-645.5c-2.2-6-5.4-11.1-9.4-15.3c-4-4.2-8.9-7.5-14.5-9.8c-5.6-2.3-11.9-3.4-18.7-3.4h-30.1v7.4
			l17.7,17.7v-10.8h12.4c9.2,0,16.1,2.9,20.9,8.8c4.8,5.8,7.2,14.3,7.2,25.4v5.2c0,5.3-0.6,10.1-1.8,14.4c-1.2,4.2-3,7.8-5.4,10.8
			c-2.4,2.9-5.4,5.2-9.1,6.8c-3.6,1.6-7.9,2.3-12.7,2.3h-11.6v-10.9l-17.7,17.7v7.4h29.3c7.1,0,13.5-1.1,19.2-3.4
			c5.8-2.3,10.7-5.5,14.8-9.7c4.1-4.2,7.2-9.3,9.5-15.2c2.2-6,3.3-12.6,3.3-20v-5C1009.9-632.8,1008.7-639.5,1006.5-645.5z"/>
		<polygon class="st5" points="933.8,-648.9 959.7,-623 933.8,-597.1 		"/>
		<path class="st5" d="M836.8-644.2l-17.6,17.6v81.6c5.6-2.7,11.5-5.2,17.6-7.5V-644.2z"/>
		<path class="st5" d="M1038-620.4l-17.6-17.6v85.1c6.1,2.3,12,4.8,17.6,7.5V-620.4z"/>
		<path class="st5" d="M929-568.2c49.2,0,93.5,12.1,124.6,31.4c-22.8-26.5-70-44.8-124.6-44.8s-101.9,18.2-124.6,44.8
			C835.5-556.2,879.8-568.2,929-568.2z"/>
	</g>
</g>
<g>
	<g>
		<defs>
			<filter id="Adobe_OpacityMaskFilter_1_" filterUnits="userSpaceOnUse" x="22" y="18.1" width="97.3" height="94">
				
					<feColorMatrix  type="matrix" values="-1 0 0 0 1  0 -1 0 0 1  0 0 -1 0 1  0 0 0 1 0" color-interpolation-filters="sRGB" result="source"/>
				<feFlood  style="flood-color:white;flood-opacity:1" result="back"/>
				<feBlend  in="source" in2="back" mode="normal"/>
			</filter>
		</defs>
		<mask maskUnits="userSpaceOnUse" x="22" y="18.1" width="97.3" height="94" id="SVGID_2_">
			<g class="st7">
				<path class="st1" d="M43.5,120.4V78.6c0,0,2.9-22.9,27.3-23.2s71.8,0,71.8,0v63.7L43.5,120.4z"/>
			</g>
		</mask>
		<g class="st8">
			<g>
				<g>
					<path class="st3" d="M37.4,70.5C37.4,46.5,57,26.9,81,26.9c8.3,0,16,2.3,22.6,6.3C95,23.9,82.7,18.1,69,18.1
						c-26,0-47,21.1-47,47c0,25.6,20.5,46.4,45.9,47C50.3,106.6,37.4,90.1,37.4,70.5z"/>
				</g>
				<g>
					
						<ellipse transform="matrix(0.9239 -0.3827 0.3827 0.9239 -20.8275 36.3833)" class="st4" cx="81" cy="70.5" rx="38.2" ry="38.2"/>
				</g>
			</g>
		</g>
		<g>
			<path class="st5" d="M70.3,97.9c-3.3,0-6.3-0.4-8.9-1.2c-2.6-0.8-4.8-2-6.5-3.5c-1.8-1.5-3.1-3.4-4.1-5.6
				c-0.9-2.2-1.4-4.7-1.4-7.5c0-2.6,0.5-5,1.4-7.3c0.9-2.2,2.3-4.2,4.1-5.8c1.8-1.6,4-2.9,6.5-3.8C64,62.4,67,62,70.3,62h21.9v57.2
				h-9.9V97.9H70.3z M82.2,70H70.3c-1.9,0-3.6,0.3-4.9,0.8c-1.4,0.6-2.5,1.3-3.4,2.3c-0.9,1-1.5,2-1.9,3.3c-0.4,1.2-0.6,2.5-0.6,3.8
				c0,1.4,0.2,2.7,0.6,3.9c0.4,1.2,1.1,2.2,1.9,3.1c0.9,0.9,2,1.5,3.4,2c1.4,0.5,3,0.7,4.9,0.7h11.9V70z"/>
		</g>
		<path class="st6" d="M138.7,77.9c-1.3-3.4-3-6.2-5.3-8.6c-2.3-2.4-5-4.2-8.1-5.5c-3.2-1.3-6.6-1.9-10.5-1.9H97.9v4.1l9.9,9.9V70h7
			c5.1,0,9,1.6,11.7,4.9c2.7,3.3,4,8,4,14.2V92c0,3-0.3,5.7-1,8.1c-0.7,2.4-1.7,4.4-3,6c-1.3,1.6-3,2.9-5.1,3.8
			c-2,0.9-4.4,1.3-7.1,1.3h-6.5v-6.1l-9.9,9.9v4.1h16.4c4,0,7.5-0.6,10.8-1.9c3.2-1.3,6-3.1,8.3-5.5c2.3-2.4,4.1-5.2,5.3-8.5
			c1.2-3.3,1.9-7.1,1.9-11.2v-2.8C140.6,85,140,81.3,138.7,77.9z"/>
		<polygon class="st5" points="97.9,76 112.5,90.6 97.9,105.1 		"/>
		<path class="st5" d="M43.5,78.6l-9.9,9.9v45.8c3.1-1.5,6.4-2.9,9.9-4.2V78.6z"/>
		<path class="st5" d="M156.4,92l-9.9-9.9v47.7c3.4,1.3,6.7,2.7,9.9,4.2V92z"/>
		<path class="st5" d="M95.2,121.3c27.6,0,52.4,6.8,69.9,17.6c-12.8-14.9-39.3-25.1-69.9-25.1c-30.6,0-57.1,10.2-69.9,25.1
			C42.8,128,67.6,121.3,95.2,121.3z"/>
	</g>
	<g>
		<g>
			<path class="st5" d="M196.2,107.3v19h-8.9V75.1h19.6c3,0,5.6,0.4,7.9,1.2c2.3,0.8,4.3,1.9,5.9,3.4c1.6,1.5,2.8,3.2,3.6,5.2
				c0.8,2,1.2,4.2,1.2,6.5c0,2.5-0.4,4.7-1.2,6.7c-0.8,2-2,3.6-3.6,5c-1.6,1.4-3.5,2.4-5.9,3.1c-2.3,0.7-5,1.1-7.9,1.1H196.2z
				 M196.2,100.2h10.7c1.7,0,3.2-0.2,4.4-0.6c1.2-0.4,2.2-1,3-1.8c0.8-0.8,1.4-1.7,1.7-2.8c0.4-1.1,0.5-2.2,0.5-3.5
				c0-1.2-0.2-2.3-0.5-3.4c-0.4-1.1-0.9-2.1-1.7-2.9c-0.8-0.9-1.8-1.5-3-2c-1.2-0.5-2.7-0.8-4.4-0.8h-10.7V100.2z"/>
			<path class="st5" d="M252.4,96.1c-0.6-0.1-1.1-0.2-1.7-0.2c-0.6,0-1.2-0.1-1.8-0.1c-2.1,0-3.7,0.4-5,1.2
				c-1.3,0.8-2.2,1.9-2.9,3.3v26h-8.5v-38h8.2l0.2,4.3c1-1.5,2.1-2.8,3.6-3.6c1.4-0.9,3.1-1.3,5-1.3c0.5,0,1,0.1,1.7,0.2
				c0.6,0.1,1.1,0.2,1.4,0.3L252.4,96.1z"/>
			<path class="st5" d="M254.9,106.9c0-2.8,0.4-5.3,1.2-7.7c0.8-2.4,2-4.4,3.5-6.1c1.5-1.7,3.4-3.1,5.5-4.1c2.2-1,4.7-1.5,7.4-1.5
				c2.8,0,5.3,0.5,7.5,1.5c2.2,1,4.1,2.3,5.6,4.1c1.5,1.7,2.7,3.8,3.5,6.1c0.8,2.4,1.2,4.9,1.2,7.7v0.7c0,2.8-0.4,5.3-1.2,7.7
				c-0.8,2.4-2,4.4-3.5,6.1c-1.5,1.7-3.4,3.1-5.6,4c-2.2,1-4.7,1.5-7.4,1.5c-2.8,0-5.3-0.5-7.5-1.5c-2.2-1-4-2.3-5.6-4
				c-1.5-1.7-2.7-3.8-3.5-6.1c-0.8-2.4-1.2-4.9-1.2-7.7V106.9z M263.4,107.7c0,1.7,0.2,3.3,0.5,4.9c0.4,1.5,0.9,2.9,1.7,4
				c0.7,1.1,1.7,2,2.9,2.7c1.2,0.7,2.5,1,4.1,1c1.6,0,2.9-0.3,4.1-1c1.2-0.7,2.1-1.6,2.8-2.7c0.7-1.1,1.3-2.5,1.7-4
				c0.4-1.5,0.5-3.1,0.5-4.9v-0.7c0-1.7-0.2-3.3-0.5-4.8c-0.4-1.5-0.9-2.8-1.7-4c-0.8-1.1-1.7-2-2.9-2.7c-1.2-0.7-2.5-1-4.1-1
				c-1.6,0-3,0.3-4.1,1c-1.1,0.7-2.1,1.6-2.8,2.7c-0.8,1.1-1.3,2.5-1.7,4c-0.4,1.5-0.5,3.1-0.5,4.8V107.7z"/>
			<path class="st5" d="M330.8,107.7c0,2.8-0.3,5.3-1,7.7c-0.6,2.4-1.6,4.4-2.8,6.1c-1.3,1.7-2.8,3.1-4.6,4c-1.8,1-3.9,1.5-6.3,1.5
				c-2.2,0-4.1-0.4-5.7-1.1c-1.6-0.7-3.1-1.7-4.3-3.1v18h-8.5V88.3h7.9l0.4,3.9c1.2-1.5,2.7-2.6,4.3-3.4c1.7-0.8,3.6-1.2,5.9-1.2
				c2.4,0,4.5,0.5,6.4,1.4c1.9,0.9,3.4,2.3,4.7,4c1.3,1.7,2.2,3.7,2.8,6.1c0.6,2.4,1,5,1,7.9V107.7z M322.3,106.9
				c0-1.7-0.2-3.3-0.5-4.8c-0.3-1.5-0.9-2.8-1.6-3.9c-0.7-1.1-1.6-2-2.7-2.7c-1.1-0.6-2.4-1-4-1c-1.9,0-3.4,0.4-4.6,1.2
				c-1.2,0.8-2.2,1.8-2.9,3.2v16.9c0.7,1.3,1.7,2.4,2.9,3.2c1.2,0.8,2.8,1.2,4.7,1.2c1.5,0,2.9-0.3,4-1c1.1-0.7,2-1.6,2.7-2.7
				c0.7-1.1,1.2-2.5,1.5-4c0.3-1.5,0.5-3.1,0.5-4.8V106.9z"/>
			<path class="st6" d="M338.8,126.3V75.1H354c3.4,0,6.5,0.6,9.4,1.7c2.8,1.1,5.2,2.8,7.3,4.9c2,2.1,3.6,4.7,4.7,7.7
				c1.1,3,1.7,6.4,1.7,10.1v2.5c0,3.7-0.6,7-1.7,10c-1.1,3-2.7,5.5-4.7,7.6c-2.1,2.1-4.5,3.7-7.4,4.9c-2.9,1.1-6.1,1.7-9.6,1.7
				H338.8z M347.7,82.3v36.9h5.8c2.4,0,4.5-0.4,6.4-1.2c1.8-0.8,3.3-1.9,4.6-3.4c1.2-1.5,2.1-3.3,2.7-5.4c0.6-2.1,0.9-4.5,0.9-7.2
				v-2.6c0-5.6-1.2-9.8-3.6-12.7c-2.4-2.9-5.9-4.4-10.5-4.4H347.7z"/>
			<path class="st6" d="M385.1,78.4c0-1.3,0.4-2.4,1.2-3.3c0.8-0.9,2-1.3,3.6-1.3c1.5,0,2.7,0.4,3.6,1.3c0.8,0.9,1.3,2,1.3,3.3
				c0,1.3-0.4,2.4-1.3,3.2c-0.8,0.9-2,1.3-3.6,1.3c-1.5,0-2.7-0.4-3.6-1.3C385.5,80.8,385.1,79.7,385.1,78.4z M394.1,126.3h-8.5v-38
				h8.5V126.3z"/>
			<path class="st6" d="M423.3,96.1c-0.6-0.1-1.1-0.2-1.7-0.2c-0.6,0-1.2-0.1-1.8-0.1c-2.1,0-3.7,0.4-5,1.2
				c-1.3,0.8-2.2,1.9-2.9,3.3v26h-8.5v-38h8.2l0.2,4.3c1-1.5,2.1-2.8,3.6-3.6c1.4-0.9,3.1-1.3,5-1.3c0.5,0,1,0.1,1.7,0.2
				c0.6,0.1,1.1,0.2,1.4,0.3L423.3,96.1z"/>
			<path class="st6" d="M444.8,127c-2.8,0-5.3-0.5-7.6-1.4c-2.2-0.9-4.2-2.2-5.7-3.9c-1.6-1.6-2.8-3.6-3.6-5.8
				c-0.8-2.2-1.3-4.7-1.3-7.3v-1.4c0-3,0.4-5.7,1.3-8.1c0.9-2.4,2.1-4.5,3.7-6.2c1.5-1.7,3.4-3,5.5-3.9c2.1-0.9,4.4-1.4,6.8-1.4
				c2.8,0,5.2,0.5,7.2,1.4c2,0.9,3.7,2.2,5.1,3.9c1.3,1.7,2.3,3.6,3,5.9c0.7,2.3,1,4.8,1,7.6v3.7h-24.9c0.1,1.5,0.4,2.8,0.9,4.1
				c0.5,1.2,1.2,2.3,2.1,3.2c0.9,0.9,1.9,1.6,3.1,2.1c1.2,0.5,2.5,0.8,4,0.8c2.1,0,3.9-0.4,5.5-1.3c1.6-0.8,2.9-2,4.1-3.5l4.6,4.4
				c-0.6,0.9-1.4,1.8-2.3,2.7c-0.9,0.9-2,1.6-3.2,2.3c-1.2,0.7-2.6,1.2-4.1,1.6C448.4,126.8,446.7,127,444.8,127z M443.8,94.4
				c-2.3,0-4.2,0.8-5.7,2.5c-1.4,1.6-2.4,3.9-2.8,6.9h16.3v-0.6c-0.1-1.1-0.3-2.2-0.5-3.3c-0.3-1-0.7-2-1.4-2.8
				c-0.6-0.8-1.4-1.5-2.4-1.9C446.4,94.7,445.2,94.4,443.8,94.4z"/>
			<path class="st6" d="M482.3,120.2c1,0,2-0.2,2.9-0.5c0.9-0.3,1.7-0.8,2.4-1.3c0.7-0.6,1.2-1.3,1.6-2.1c0.4-0.8,0.6-1.7,0.7-2.6h8
				c-0.1,1.8-0.5,3.6-1.4,5.2c-0.8,1.6-1.9,3-3.3,4.2c-1.4,1.2-3,2.2-4.9,2.8c-1.9,0.7-3.8,1-5.9,1c-2.9,0-5.5-0.5-7.6-1.5
				c-2.2-1-4-2.4-5.4-4.1c-1.4-1.7-2.5-3.8-3.2-6.1c-0.7-2.3-1.1-4.8-1.1-7.4v-1.2c0-2.6,0.4-5.1,1.1-7.4c0.7-2.3,1.8-4.4,3.2-6.1
				c1.4-1.7,3.2-3.1,5.4-4.1c2.2-1,4.7-1.5,7.6-1.5c2.3,0,4.4,0.4,6.3,1.1s3.5,1.7,4.9,3c1.3,1.3,2.4,2.8,3.2,4.5
				c0.8,1.8,1.2,3.7,1.2,5.8h-8c0-1-0.3-2-0.6-2.9c-0.4-0.9-0.9-1.7-1.5-2.4c-0.6-0.7-1.4-1.2-2.3-1.6c-0.9-0.4-1.9-0.6-3.1-0.6
				c-1.7,0-3.2,0.4-4.3,1.1c-1.1,0.7-2,1.6-2.7,2.8c-0.7,1.1-1.1,2.5-1.4,3.9c-0.2,1.5-0.4,3-0.4,4.5v1.2c0,1.5,0.1,3.1,0.4,4.5
				c0.2,1.5,0.7,2.8,1.4,3.9c0.7,1.1,1.5,2.1,2.7,2.8C479.1,119.8,480.6,120.2,482.3,120.2z"/>
			<path class="st6" d="M515.1,79v9.2h6.7v6.3h-6.7v21.2c0,0.9,0.1,1.6,0.3,2.1c0.2,0.5,0.5,1,0.8,1.2c0.4,0.3,0.8,0.5,1.2,0.6
				c0.5,0.1,1,0.2,1.6,0.2c0.6,0,1.2,0,1.7-0.1c0.6-0.1,1-0.2,1.3-0.2v6.6c-0.7,0.2-1.5,0.4-2.4,0.5c-0.9,0.2-2,0.3-3.3,0.3
				c-1.4,0-2.7-0.2-3.9-0.6c-1.2-0.4-2.2-1-3.1-1.8c-0.9-0.8-1.6-1.9-2.1-3.3s-0.7-3-0.7-5V94.6h-6.3v-6.3h6.3V79H515.1z"/>
		</g>
	</g>
</g>
</svg>
