<svg width="153" height="100" viewBox="0 0 153 100" fill="none" xmlns="http://www.w3.org/2000/svg">
<mask id="mask0" mask-type="alpha" maskUnits="userSpaceOnUse" x="0" y="0" width="153" height="100">
<path d="M0 100V35.824C0 35.824 4.4524 0.665302 41.914 0.204708C79.3756 -0.255885 152.149 0.204708 152.149 0.204708V98.0041L0 100Z" fill="white"/>
</mask>
<g mask="url(#mask0)">
<path d="M41.1464 65.4555C36.0799 65.4555 31.474 64.8414 27.4822 63.6132C23.4903 62.3849 20.1127 60.5425 17.5026 58.2396C14.7391 55.9366 12.7432 53.0195 11.2079 49.6418C9.82607 46.2641 9.05841 42.4259 9.05841 38.127C9.05841 34.1352 9.82607 30.4504 11.2079 26.9192C12.5896 23.5415 14.7391 20.4709 17.5026 18.0144C20.2662 15.5579 23.6439 13.562 27.4822 12.1802C31.474 10.7984 35.9264 10.0308 41.1464 10.0308H74.7698V97.8506H59.5702V65.4555H41.1464ZM59.4167 22.4668H41.1464C38.2293 22.4668 35.6193 22.9274 33.6234 23.695C31.474 24.6162 29.7851 25.6909 28.4033 27.2263C27.0216 28.7616 26.1004 30.2969 25.4863 32.2928C24.8721 34.1352 24.5651 36.1311 24.5651 38.127C24.5651 40.2764 24.8721 42.2723 25.4863 44.1147C26.1004 45.9571 27.1751 47.4924 28.4033 48.8742C29.7851 50.2559 31.474 51.1771 33.6234 51.9448C35.7728 52.7124 38.2293 53.0195 41.1464 53.0195H59.4167V22.4668Z" fill="white"/>
<path d="M146.162 34.7493C144.166 29.5293 141.556 25.2304 138.025 21.5456C134.493 17.8609 130.348 15.0973 125.589 13.1014C120.676 11.1055 115.456 10.1843 109.468 10.1843H83.5211V16.4791L98.7207 31.6787V22.3133H109.468C117.298 22.3133 123.286 24.7698 127.431 29.8363C131.576 34.9029 133.572 42.1188 133.572 51.6378V56.0902C133.572 60.6961 133.112 64.8414 132.037 68.5262C130.962 72.2109 129.427 75.2816 127.431 77.7381C125.435 80.1946 122.825 82.1905 119.601 83.5723C116.53 84.954 112.846 85.5682 108.7 85.5682H98.7207V76.2027L83.5211 91.4023V97.6971H108.7C114.841 97.6971 120.215 96.7759 125.282 94.78C130.195 92.7841 134.493 90.0206 138.025 86.3358C141.556 82.6511 144.319 78.3522 146.162 73.2857C148.004 68.2191 149.079 62.3849 149.079 56.0902V51.7913C149.079 45.65 148.158 39.9694 146.162 34.7493Z" fill="white"/>
<path d="M83.5211 31.8322L105.783 54.0942L83.5211 76.5097V31.8322Z" fill="white"/>
</g>
</svg>
