<svg width="478" height="40" viewBox="0 0 478 40" fill="none" xmlns="http://www.w3.org/2000/svg">
<path d="M28 20.5H11M11 20.5L16.6667 15M11 20.5L16.6667 26" stroke="#2A2D34"/>
<path d="M75 17C73.3425 17 72 18.3425 72 20C72 21.6575 73.3425 23 75 23C76.6575 23 78 21.6575 78 20C78 18.3425 76.6575 17 75 17ZM81.705 19.25C81.36 16.1225 78.8775 13.64 75.75 13.295V11.75H74.25V13.295C71.1225 13.64 68.64 16.1225 68.295 19.25H66.75V20.75H68.295C68.64 23.8775 71.1225 26.36 74.25 26.705V28.25H75.75V26.705C78.8775 26.36 81.36 23.8775 81.705 20.75H83.25V19.25H81.705ZM75 25.25C72.0975 25.25 69.75 22.9025 69.75 20C69.75 17.0975 72.0975 14.75 75 14.75C77.9025 14.75 80.25 17.0975 80.25 20C80.25 22.9025 77.9025 25.25 75 25.25Z" fill="black"/>
<path d="M121 25.25V29H124.75L135.81 17.94L132.06 14.19L121 25.25ZM138.71 15.04C139.1 14.65 139.1 14.02 138.71 13.63L136.37 11.29C135.98 10.9 135.35 10.9 134.96 11.29L133.13 13.12L136.88 16.87L138.71 15.04Z" fill="#3B403E"/>
<path d="M179 27C179 28.1 179.9 29 181 29H189C190.1 29 191 28.1 191 27V15H179V27ZM181.46 19.88L182.87 18.47L185 20.59L187.12 18.47L188.53 19.88L186.41 22L188.53 24.12L187.12 25.53L185 23.41L182.88 25.53L181.47 24.12L183.59 22L181.46 19.88ZM188.5 12L187.5 11H182.5L181.5 12H178V14H192V12H188.5Z" fill="#EC4959"/>
<path d="M240 10.8333C234.94 10.8333 230.833 14.94 230.833 20C230.833 25.06 234.94 29.1666 240 29.1666C245.06 29.1666 249.167 25.06 249.167 20C249.167 14.94 245.06 10.8333 240 10.8333ZM232.667 20C232.667 15.9483 235.948 12.6666 240 12.6666C241.696 12.6666 243.254 13.2441 244.492 14.2158L234.216 24.4916C233.244 23.2541 232.667 21.6958 232.667 20ZM240 27.3333C238.304 27.3333 236.746 26.7558 235.508 25.7841L245.784 15.5083C246.756 16.7458 247.333 18.3041 247.333 20C247.333 24.0516 244.052 27.3333 240 27.3333Z" fill="#ED9638"/>
<path d="M292 24.2L287.8 20L286.4 21.4L292 27L304 15L302.6 13.6L292 24.2Z" fill="#1CDF76"/>
<path d="M350 20C352.486 20 354.5 17.9862 354.5 15.5C354.5 13.0138 352.486 11 350 11C347.514 11 345.5 13.0138 345.5 15.5C345.5 17.9862 347.514 20 350 20ZM350 22.25C346.996 22.25 341 23.7575 341 26.75V29H359V26.75C359 23.7575 353.004 22.25 350 22.25Z" fill="#883BC8"/>
<path d="M410.25 17H409.375V15.2857C409.375 12.92 407.415 11 405 11C402.585 11 400.625 12.92 400.625 15.2857V17H399.75C398.787 17 398 17.7714 398 18.7143V27.2857C398 28.2286 398.787 29 399.75 29H410.25C411.212 29 412 28.2286 412 27.2857V18.7143C412 17.7714 411.212 17 410.25 17ZM405 24.7143C404.037 24.7143 403.25 23.9429 403.25 23C403.25 22.0571 404.037 21.2857 405 21.2857C405.963 21.2857 406.75 22.0571 406.75 23C406.75 23.9429 405.963 24.7143 405 24.7143ZM407.713 17H402.287V15.2857C402.287 13.82 403.504 12.6286 405 12.6286C406.496 12.6286 407.713 13.82 407.713 15.2857V17Z" fill="#883BC8"/>
<path d="M449 26H467V24H449V26ZM449 21H467V19H449V21ZM449 14V16H467V14H449Z" fill="#883BC8"/>
</svg>
