<svg width="25" height="76" viewBox="0 0 25 76" fill="none" xmlns="http://www.w3.org/2000/svg">
<g clip-path="url(#clip0)">
<path d="M22.8527 19.2385L21.8839 18.9022C22.4263 18.4726 22.7751 17.809 22.7751 17.0651V16.355C22.7751 15.063 21.7239 14.0118 20.4319 14.0118C19.1399 14.0118 18.0887 15.063 18.0887 16.355V17.0651C18.0887 17.809 18.4377 18.4726 18.98 18.9022L18.011 19.2385C17.3896 19.4544 16.8672 19.8503 16.4931 20.3551H13.8758V19.3222C13.8758 17.9626 13.0128 16.7496 11.7285 16.3037L10.7595 15.9673C11.3019 15.5378 11.6509 14.8742 11.6509 14.1302V13.4202C11.6509 12.128 10.5997 11.077 9.30768 11.077C8.01569 11.077 6.96448 12.1282 6.96448 13.4202V14.1302C6.96448 14.8742 7.31348 15.5378 7.85565 15.9673L6.88684 16.3037C5.60254 16.7496 4.73956 17.9626 4.73956 19.3222V20.3551H1.35504C1.15894 20.3551 1 20.514 1 20.7101V23.645C1 23.8411 1.15894 24 1.35504 24H16.1243C16.1403 24 16.156 23.9985 16.1716 23.9965C16.1871 23.9985 16.2029 24 16.219 24H24.645C24.8411 24 25 23.8411 25 23.645V22.257C25 20.8976 24.1372 19.6846 22.8527 19.2385V19.2385ZM18.7988 16.355C18.7988 15.4545 19.5314 14.7219 20.4319 14.7219C21.3324 14.7219 22.065 15.4545 22.065 16.355V17.0651C22.065 17.9656 21.3324 18.6982 20.4319 18.6982C19.5314 18.6982 18.7988 17.9656 18.7988 17.0651V16.355ZM7.67456 13.4202C7.67456 12.5197 8.40717 11.787 9.30768 11.787C10.2082 11.787 10.9408 12.5197 10.9408 13.4202V14.1302C10.9408 15.0308 10.2082 15.7634 9.30768 15.7634C8.40717 15.7634 7.67456 15.0308 7.67456 14.1302V13.4202ZM10.0526 16.4734L10.3975 16.5932L9.30768 18.4841L8.21783 16.5932L8.56281 16.4734H10.0526ZM5.44965 19.3222C5.44965 18.2648 6.12091 17.3212 7.11975 16.9744L7.53503 16.8303L9.00006 19.3726C9.06342 19.4826 9.18079 19.5503 9.30768 19.5503C9.43457 19.5503 9.55194 19.4826 9.6153 19.3726L11.0803 16.8303L11.4956 16.9744C12.4944 17.3212 13.1655 18.2648 13.1655 19.3222V20.3551H5.44965V19.3222ZM1.71008 21.0652H16.0952C15.9454 21.4367 15.864 21.8399 15.864 22.257V23.2899H1.71008V21.0652ZM24.2899 23.2899H16.574V22.257C16.574 21.1996 17.2451 20.2562 18.244 19.9092L19.687 19.4083H21.1768L22.6198 19.9092C23.6188 20.2562 24.2899 21.1996 24.2899 22.257V23.2899Z" fill="#9C9C9C"/>
<path d="M22.7515 2.55615H19.145C18.9489 2.55615 18.79 2.71527 18.79 2.91119C18.79 3.1073 18.9489 3.26624 19.145 3.26624H22.7515C23.5998 3.26624 24.2899 3.95636 24.2899 4.80487V9.72784C24.2899 10.5762 23.5998 11.2663 22.7515 11.2663H17.8757C17.6796 11.2663 17.5207 11.4252 17.5207 11.6213V13.1312L15.7599 11.3703C15.6933 11.3036 15.603 11.2663 15.5089 11.2663H12.6213C11.773 11.2663 11.0827 10.5762 11.0827 9.72784V4.80469C11.0827 3.95636 11.7728 3.26624 12.6213 3.26624H17.4852C17.6813 3.26624 17.8402 3.1073 17.8402 2.91119C17.8402 2.71509 17.6813 2.55615 17.4852 2.55615H15.6272V2.24854C15.6272 1.00873 14.6185 0 13.3787 0H3.24854C2.00873 0 1 1.00873 1 2.24854V3.03351C1 3.22961 1.15894 3.38855 1.35504 3.38855C1.55115 3.38855 1.71008 3.22961 1.71008 3.03351V2.24854C1.71008 1.40021 2.40021 0.710083 3.24854 0.710083H13.3787C14.227 0.710083 14.9171 1.40021 14.9171 2.24854V2.55615H12.6213C11.3815 2.55615 10.3728 3.56488 10.3728 4.80469V8.70996H6.65686C6.46075 8.70996 6.30182 8.8689 6.30182 9.065V10.5749L4.54108 8.81396C4.47443 8.74731 4.38416 8.70996 4.29004 8.70996H3.24854C2.40021 8.70996 1.71008 8.01984 1.71008 7.17151V4.68439C1.71008 4.48828 1.55115 4.32935 1.35504 4.32935C1.15894 4.32935 1 4.48828 1 4.68439V7.17151C1 8.4115 2.00873 9.42004 3.24854 9.42004H4.14282L6.40582 11.683C6.47375 11.751 6.56458 11.787 6.65686 11.7869C6.70264 11.7869 6.74878 11.7781 6.79272 11.7599C6.92529 11.705 7.0119 11.5756 7.0119 11.432V9.42004H10.3728V9.72784C10.3728 10.9677 11.3815 11.9762 12.6213 11.9762H15.3619L17.6247 14.2392C17.6926 14.3071 17.7834 14.3432 17.8757 14.3432C17.9215 14.3432 17.9677 14.3344 18.0116 14.3161C18.1442 14.2612 18.2308 14.1317 18.2308 13.9882V11.9762H22.7515C23.9913 11.9762 25 10.9677 25 9.72784V4.80469C25 3.56488 23.9913 2.55615 22.7515 2.55615Z" fill="#9C9C9C"/>
</g>
<g clip-path="url(#clip1)">
<path d="M22.8527 45.2385L21.8839 44.9022C22.4263 44.4726 22.7751 43.809 22.7751 43.0651V42.355C22.7751 41.063 21.7239 40.0118 20.4319 40.0118C19.1399 40.0118 18.0887 41.063 18.0887 42.355V43.0651C18.0887 43.809 18.4377 44.4726 18.98 44.9022L18.0112 45.2385C17.5099 45.4125 17.0692 45.702 16.7154 46.0854C16.3671 45.7095 15.9269 45.4143 15.4208 45.2385L14.452 44.9022C14.9944 44.4726 15.3432 43.809 15.3432 43.0651V42.355C15.3432 41.063 14.292 40.0118 13 40.0118C11.708 40.0118 10.6568 41.063 10.6568 42.355V43.0651C10.6568 43.809 11.0058 44.4726 11.548 44.9022L10.5792 45.2385C10.0731 45.4143 9.63287 45.7095 9.28461 46.0854C8.93085 45.702 8.49011 45.4125 7.98895 45.2385L7.01996 44.9022C7.56232 44.4726 7.91113 43.809 7.91113 43.0651V42.355C7.91113 41.063 6.86011 40.0118 5.56793 40.0118C4.27594 40.0118 3.22491 41.063 3.22491 42.355V43.0651C3.22491 43.809 3.57373 44.4726 4.11609 44.9022L3.14728 45.2385C1.86298 45.6844 1 46.8975 1 48.257V49.645C1 49.8411 1.15894 50 1.35504 50H12.6671C12.8632 50 13.0222 49.8411 13.0222 49.645C13.0222 49.4488 12.8632 49.2899 12.6671 49.2899H9.14197V48.257C9.14197 47.1996 9.81323 46.2562 10.8121 45.9092L12.2551 45.4083H13.7449L15.1879 45.9092C16.1868 46.2562 16.858 47.1996 16.858 48.257V49.2899H14.3253C14.1294 49.2899 13.9703 49.4488 13.9703 49.645C13.9703 49.8411 14.1294 50 14.3253 50H24.645C24.8411 50 25 49.8411 25 49.645V48.257C25 46.8975 24.137 45.6844 22.8527 45.2385V45.2385ZM3.93481 42.355C3.93481 41.4545 4.66742 40.7219 5.56793 40.7219C6.46844 40.7219 7.20105 41.4545 7.20105 42.355V43.0651C7.20105 43.9656 6.46844 44.6982 5.56793 44.6982C4.66742 44.6982 3.93481 43.9656 3.93481 43.0651V42.355ZM1.71008 49.2899V48.257C1.71008 47.1996 2.38116 46.256 3.38019 45.9092L4.82324 45.4083H6.31299L7.75604 45.9094C8.18982 46.0599 8.56537 46.3216 8.85431 46.6715C8.58386 47.1441 8.43188 47.6876 8.43188 48.257V49.2899H1.71008ZM11.3669 42.355C11.3669 41.4545 12.0995 40.7219 13 40.7219C13.9005 40.7219 14.6331 41.4545 14.6331 42.355V43.0651C14.6331 43.9656 13.9005 44.6982 13 44.6982C12.0995 44.6982 11.3669 43.9656 11.3669 43.0651V42.355ZM18.7988 42.355C18.7988 41.4545 19.5314 40.7219 20.4319 40.7219C21.3324 40.7219 22.065 41.4545 22.065 42.355V43.0651C22.065 43.9656 21.3324 44.6982 20.4319 44.6982C19.5314 44.6982 18.7988 43.9656 18.7988 43.0651V42.355ZM24.2899 49.2899H17.5681V48.257C17.5681 47.6876 17.4161 47.1439 17.1457 46.6715C17.4346 46.3216 17.8102 46.0599 18.244 45.9092L19.687 45.4083H21.1768L22.6198 45.9092C23.6188 46.256 24.2899 47.1996 24.2899 48.257V49.2899Z" fill="#9C9C9C"/>
<path d="M1.35504 38.355H3.16962C3.36572 38.355 3.52466 38.1961 3.52466 38C3.52466 37.8039 3.36572 37.645 3.16962 37.645H1.71008V36.2486C1.71008 34.8903 2.80542 33.7838 4.15894 33.7642C4.55133 34.0607 5.03949 34.2366 5.56793 34.2366C6.09656 34.2366 6.58472 34.0607 6.97711 33.7642C8.33081 33.7838 9.42596 34.8903 9.42596 36.2486V37.645H4.83826C4.64215 37.645 4.48322 37.8039 4.48322 38C4.48322 38.1961 4.64215 38.355 4.83826 38.355H9.78101C9.97711 38.355 10.136 38.1961 10.136 38V36.2486C10.136 34.7008 9.02991 33.407 7.56671 33.1151C7.78497 32.7592 7.91113 32.3409 7.91113 31.8934V30.8521C7.91113 29.5601 6.86011 28.5089 5.56793 28.5089C4.27594 28.5089 3.22491 29.5601 3.22491 30.8521V31.8934C3.22491 32.3409 3.35107 32.7592 3.56934 33.1151C2.10614 33.407 1 34.7008 1 36.2486V38C1 38.1961 1.15894 38.355 1.35504 38.355ZM3.93481 30.8521C3.93481 29.9516 4.66742 29.219 5.56793 29.219C6.46844 29.219 7.20105 29.9516 7.20105 30.8521V31.8934C7.20105 32.7939 6.46844 33.5266 5.56793 33.5266C4.66742 33.5266 3.93481 32.7939 3.93481 31.8934V30.8521Z" fill="#9C9C9C"/>
<path d="M24.645 26H14.7672C14.5712 26 14.4123 26.1589 14.4123 26.355C14.4123 26.5511 14.5712 26.7101 14.7672 26.7101H24.2899V36.0355H11.6509V26.7101H13.1183C13.3144 26.7101 13.4733 26.5511 13.4733 26.355C13.4733 26.1589 13.3144 26 13.1183 26H11.2958C11.0997 26 10.9408 26.1589 10.9408 26.355V38C10.9408 38.1961 11.0997 38.355 11.2958 38.355H24.645C24.8411 38.355 25 38.1961 25 38V26.355C25 26.1589 24.8411 26 24.645 26V26ZM11.6509 37.645V36.7455H24.2899V37.645H11.6509Z" fill="#9C9C9C"/>
<path d="M18.3491 28.7929H22.7987C22.9948 28.7929 23.1537 28.634 23.1537 28.4379C23.1537 28.2418 22.9948 28.0828 22.7987 28.0828H18.3491C18.153 28.0828 17.994 28.2418 17.994 28.4379C17.994 28.634 18.153 28.7929 18.3491 28.7929V28.7929Z" fill="#9C9C9C"/>
<path d="M18.3491 31.2544H22.7987C22.9948 31.2544 23.1537 31.0955 23.1537 30.8994C23.1537 30.7034 22.9948 30.5443 22.7987 30.5443H18.3491C18.153 30.5443 17.994 30.7034 17.994 30.8994C17.994 31.0955 18.153 31.2544 18.3491 31.2544V31.2544Z" fill="#9C9C9C"/>
<path d="M12.787 33.2664C12.787 33.4623 12.946 33.6214 13.1421 33.6214H22.7989C22.995 33.6214 23.1539 33.4623 23.1539 33.2664C23.1539 33.0703 22.995 32.9113 22.7989 32.9113H13.1421C12.946 32.9113 12.787 33.0701 12.787 33.2664Z" fill="#9C9C9C"/>
<path d="M14.8699 27.4202C13.6301 27.4202 12.6213 28.4289 12.6213 29.6687C12.6213 30.9085 13.6301 31.9171 14.8699 31.9171C16.1097 31.9171 17.1184 30.9085 17.1184 29.6687C17.1184 28.4289 16.1097 27.4202 14.8699 27.4202ZM14.8699 31.2072C14.0215 31.2072 13.3314 30.517 13.3314 29.6687C13.3314 28.8202 14.0215 28.1301 14.8699 28.1301C15.7182 28.1301 16.4083 28.8202 16.4083 29.6687C16.4083 30.517 15.7182 31.2072 14.8699 31.2072Z" fill="#9C9C9C"/>
</g>
<path d="M23.6515 55.9844H11.2017C11.0056 55.9844 10.8467 56.1433 10.8467 56.3394C10.8467 56.5355 11.0056 56.6945 11.2017 56.6945H23.6515C23.9778 56.6945 24.2431 56.9598 24.2431 57.2861V70.7299C24.2431 71.0562 23.9776 71.3217 23.6515 71.3217H2.25482C1.92853 71.3217 1.66321 71.0562 1.66321 70.7299V57.2861C1.66321 56.9598 1.92871 56.6945 2.25482 56.6945H9.54482C9.74092 56.6945 9.89986 56.5355 9.89986 56.3394C9.89986 56.1433 9.74092 55.9844 9.54482 55.9844H2.25482C1.53705 55.9844 0.953125 56.5683 0.953125 57.2861V70.7299C0.953125 71.4478 1.53705 72.0318 2.25482 72.0318H23.6513C24.3692 72.0318 24.9532 71.4477 24.9532 70.7299V57.2861C24.9532 56.5683 24.3692 55.9844 23.6515 55.9844V55.9844Z" fill="#9C9C9C"/>
<path d="M4.04194 66.8246V68.5762C4.04194 68.7721 4.20087 68.9312 4.39698 68.9312H12.823C13.0191 68.9312 13.178 68.7721 13.178 68.5762V66.8246C13.178 65.277 12.0717 63.983 10.6085 63.6913C10.8269 63.3353 10.9531 62.9169 10.9531 62.4696V61.4281C10.9531 60.1361 9.90188 59.0849 8.60988 59.0849C7.31789 59.0849 6.26668 60.1361 6.26668 61.4281V62.4696C6.26668 62.9169 6.39284 63.3353 6.61128 63.6913C5.14808 63.983 4.04194 65.277 4.04194 66.8246ZM6.97676 61.4281C6.97676 60.5276 7.70937 59.795 8.60988 59.795C9.5104 59.795 10.243 60.5276 10.243 61.4281V62.4696C10.243 63.3701 9.5104 64.1027 8.60988 64.1027C7.70937 64.1027 6.97676 63.3701 6.97676 62.4696V61.4281ZM7.20088 64.3404C7.59328 64.6367 8.08144 64.8128 8.60988 64.8128C9.13851 64.8128 9.62667 64.6367 10.0191 64.3404C11.3726 64.36 12.4679 65.4665 12.4679 66.8246V68.2212H4.75184V66.8246C4.75184 65.4665 5.84718 64.3598 7.20088 64.3404V64.3404Z" fill="#9C9C9C"/>
<path d="M16.0656 64.6945C16.1198 64.6945 16.1743 64.682 16.2243 64.657L19.6327 62.9528C19.753 62.8926 19.8289 62.7697 19.8289 62.6353C19.8289 62.5007 19.753 62.3778 19.6327 62.3178L16.2243 60.6136C16.1143 60.5585 15.9836 60.5644 15.8788 60.629C15.7743 60.6938 15.7105 60.8081 15.7105 60.9311V64.3395C15.7105 64.4625 15.7743 64.5768 15.8788 64.6414C15.9359 64.6766 16.0008 64.6945 16.0656 64.6945V64.6945ZM16.4206 61.5055L18.68 62.6353L16.4206 63.7651V61.5055Z" fill="#9C9C9C"/>
<path d="M15.2489 65.9488V66.1619H14.0891C13.8932 66.1619 13.7341 66.3209 13.7341 66.517C13.7341 66.7129 13.8932 66.8718 14.0891 66.8718H15.2489V67.085C15.2489 67.2811 15.4079 67.44 15.604 67.44C15.8001 67.44 15.959 67.2811 15.959 67.085V66.8718H21.3791C21.5752 66.8718 21.7342 66.7129 21.7342 66.517C21.7342 66.3209 21.5752 66.1619 21.3791 66.1619H15.959V65.9488C15.959 65.7527 15.8001 65.5938 15.604 65.5938C15.4079 65.5938 15.2489 65.7527 15.2489 65.9488V65.9488Z" fill="#9C9C9C"/>
<defs>
<clipPath id="clip0">
<rect width="24" height="24" fill="white" transform="translate(1)"/>
</clipPath>
<clipPath id="clip1">
<rect width="24" height="24" fill="white" transform="translate(1 26)"/>
</clipPath>
</defs>
</svg>
