<svg width="30" height="30" viewBox="0 0 30 30" fill="none" xmlns="http://www.w3.org/2000/svg">
<path d="M5.06016 5.33669V1.39392H3.30234V5.33669H0V12.2086H3.30234V28.606H5.06016V12.2086H8.36191V5.33669H5.06016ZM6.6041 10.4508H1.75781V7.09451H6.6041V10.4508Z" fill="#3B403E"/>
<path d="M15.8789 13.531V1.39392H14.1211V13.531H10.8188V20.4035H14.1211V28.606H15.8789V20.4035H19.1812V13.531H15.8789ZM17.4234 18.6457H12.5766V15.2888H17.4234V18.6457Z" fill="#3B403E"/>
<path d="M26.6977 5.33669V1.39392H24.9398V5.33669H21.6381V12.2086H24.9398V28.606H26.6977V12.2086H30V5.33669H26.6977ZM28.2422 10.4508H23.3959V7.09451H28.2422V10.4508Z" fill="#3B403E"/>
</svg>
