<svg width="30" height="30" viewBox="0 0 30 30" fill="none" xmlns="http://www.w3.org/2000/svg">
<g clip-path="url(#clip0)">
<path d="M7.50002 0H1.07145C0.479694 0 0 0.479694 0 1.07145V7.50002C0 8.09177 0.479694 8.57146 1.07145 8.57146H7.50002C8.09177 8.57146 8.57146 8.09177 8.57146 7.50002V1.07145C8.5714 0.479694 8.09171 0 7.50002 0ZM6.42857 6.42857H2.14283V2.14283H6.42857V6.42857Z" fill="#3B403E"/>
<path d="M7.50002 10.7143H1.07145C0.479694 10.7143 0 11.194 0 11.7857V18.2143C0 18.806 0.479694 19.2857 1.07145 19.2857H7.50002C8.09177 19.2857 8.57146 18.806 8.57146 18.2143V11.7857C8.5714 11.194 8.09171 10.7143 7.50002 10.7143ZM6.42857 17.1429H2.14283V12.8571H6.42857V17.1429Z" fill="#3B403E"/>
<path d="M7.50002 21.4285H1.07145C0.479694 21.4285 0 21.9082 0 22.5V28.9285C0 29.5203 0.479694 30 1.07145 30H7.50002C8.09177 30 8.57146 29.5203 8.57146 28.9285V22.5C8.5714 21.9082 8.09171 21.4285 7.50002 21.4285ZM6.42857 27.8571H2.14283V23.5714H6.42857V27.8571Z" fill="#3B403E"/>
<path d="M28.9286 3.21429H11.7857C11.1939 3.21429 10.7142 3.69399 10.7142 4.28574C10.7142 4.8775 11.1939 5.3572 11.7857 5.3572H28.9286C29.5203 5.3572 30 4.8775 30 4.28574C30 3.69399 29.5203 3.21429 28.9286 3.21429Z" fill="#3B403E"/>
<path d="M28.9286 13.9286H11.7857C11.1939 13.9286 10.7142 14.4083 10.7142 15.0001C10.7142 15.5919 11.194 16.0715 11.7857 16.0715H28.9286C29.5203 16.0715 30 15.5918 30 15C30 14.4083 29.5203 13.9286 28.9286 13.9286Z" fill="#3B403E"/>
<path d="M28.9286 24.6428H11.7857C11.1939 24.6428 10.7142 25.1225 10.7142 25.7143C10.7142 26.306 11.1939 26.7857 11.7857 26.7857H28.9286C29.5203 26.7857 30 26.306 30 25.7143C30 25.1225 29.5203 24.6428 28.9286 24.6428Z" fill="#3B403E"/>
</g>
<defs>
<clipPath id="clip0">
<rect width="30" height="30" fill="white"/>
</clipPath>
</defs>
</svg>
