<svg width="30" height="30" viewBox="0 0 30 30" fill="none" xmlns="http://www.w3.org/2000/svg">
<path d="M29.2924 6.63657C19.1138 4.6135 19.7726 4.71915 19.5421 4.75794C19.4684 4.77024 18.565 4.95182 16.4593 5.37293C15.5766 2.82739 13.1547 0.994751 10.3125 0.994751C7.46766 0.994751 5.04387 2.83084 4.16314 5.38014L1.05023 4.76157C0.507656 4.65399 0 5.06877 0 5.62366V26.2487C0 26.668 0.296309 27.029 0.707578 27.1107C10.8002 29.1167 10.1395 28.9872 10.2064 28.9954C10.4186 29.0214 9.76272 29.1299 19.688 27.1449L28.9498 28.9857C29.4926 29.0934 30 28.678 30 28.1237V7.49866C30 7.0793 29.7037 6.71836 29.2924 6.63657V6.63657ZM10.3125 2.75256C12.9295 2.75256 15.0586 4.88163 15.0586 7.49866C15.0586 9.70665 11.5255 15.3114 10.3125 17.166C9.10084 15.3135 5.56641 9.70711 5.56641 7.49866C5.56641 4.88163 7.69553 2.75256 10.3125 2.75256V2.75256ZM1.75781 6.69434L3.8209 7.10432C3.81305 7.23481 3.80859 7.36618 3.80859 7.4986C3.80859 8.96426 4.76736 11.3295 6.73975 14.7296C7.89146 16.7149 9.02684 18.4195 9.43359 19.0199V27.0528L1.75781 25.5272V6.69434ZM11.1914 19.0199C11.5981 18.4195 12.7335 16.715 13.8853 14.7296C15.8576 11.3295 16.8164 8.96426 16.8164 7.49866C16.8164 7.36366 16.8118 7.22971 16.8036 7.09676L18.8086 6.69569V25.5281L11.1914 27.0516V19.0199ZM28.2422 27.0529L20.5664 25.5273V6.6944L28.2422 8.22001V27.0529Z" fill="#3B403E"/>
<path d="M10.3125 10.2526C11.831 10.2526 13.0664 9.01717 13.0664 7.49866C13.0664 5.98014 11.831 4.74475 10.3125 4.74475C8.79398 4.74475 7.55859 5.98014 7.55859 7.49866C7.55859 9.01717 8.79398 10.2526 10.3125 10.2526ZM10.3125 6.50256C10.8618 6.50256 11.3086 6.9494 11.3086 7.49866C11.3086 8.04792 10.8618 8.49475 10.3125 8.49475C9.76324 8.49475 9.31641 8.04792 9.31641 7.49866C9.31641 6.9494 9.76324 6.50256 10.3125 6.50256Z" fill="#3B403E"/>
</svg>
