<svg width="30" height="30" viewBox="0 0 30 30" fill="none" xmlns="http://www.w3.org/2000/svg">
<path d="M30 28.6743L19.8326 18.5069C21.4932 16.5461 22.5 14.0149 22.5 11.25C22.5 5.04638 17.4536 0 11.25 0C5.04643 0 0 5.04638 0 11.25C0 17.4536 5.04638 22.5 11.25 22.5C14.0149 22.5 16.5461 21.4932 18.5069 19.8326L28.6743 30L30 28.6743ZM11.25 20.625C6.08094 20.625 1.87502 16.4191 1.87502 11.25C1.87502 6.08094 6.08094 1.87502 11.25 1.87502C16.4191 1.87502 20.625 6.08094 20.625 11.25C20.625 16.4191 16.4191 20.625 11.25 20.625Z" fill="#3B403E"/>
</svg>
