<svg width="24" height="124" viewBox="0 0 24 124" fill="none" xmlns="http://www.w3.org/2000/svg">
<g clip-path="url(#clip0)">
<path d="M3.32779 111.751V122.851C3.32779 123.208 3.612 123.497 3.96442 123.497H20.0337C20.3855 123.497 20.6709 123.209 20.6709 122.851V111.751L22.913 114.028C22.9717 114.087 23.0417 114.135 23.119 114.168C23.1962 114.2 23.2792 114.217 23.363 114.217C23.4469 114.217 23.5299 114.2 23.6071 114.168C23.6844 114.135 23.7544 114.087 23.813 114.028C23.933 113.906 24.0003 113.742 24.0003 113.571C24.0003 113.4 23.933 113.236 23.813 113.114L20.669 109.924V105.415C20.669 105.059 20.3848 104.768 20.0324 104.768H16.3705C16.2692 104.768 16.1695 104.793 16.0797 104.84C15.99 104.887 15.913 104.955 15.8552 105.038L12.4484 101.582C12.3899 101.522 12.32 101.474 12.2427 101.442C12.1654 101.409 12.0823 101.392 11.9984 101.392C11.9145 101.392 11.8315 101.409 11.7542 101.442C11.6769 101.474 11.6069 101.522 11.5484 101.582L0.186314 113.114C0.0664705 113.236 -0.000686646 113.4 -0.000686646 113.571C-0.000686646 113.742 0.0664705 113.906 0.186314 114.028C0.436419 114.28 0.837472 114.28 1.08695 114.028L3.32779 111.751ZM10.6358 122.205V117.684H13.1811V122.205H10.6358ZM17.0065 106.061H19.3964V108.633L17.0065 106.208V106.061ZM11.9981 102.951L19.3964 110.46V122.205H14.453V117.039C14.453 116.683 14.1688 116.393 13.8158 116.393H9.99852C9.648 116.393 9.36189 116.681 9.36189 117.039V122.205H4.59979V110.46L11.9981 102.95V102.951Z" fill="#9C9C9C"/>
</g>
<g clip-path="url(#clip1)">
<path d="M2.66387 0C2.14369 0 1.87082 0.471652 1.87082 0.799826V7.04243L0.0384755 12.4957C0.0103016 12.5807 -0.000133178 12.6939 -0.000133178 12.7492V20.4522C-0.00900274 20.8769 0.379171 21.263 0.803345 21.263C1.21865 21.263 1.60682 20.8769 1.59639 20.4522V18.5974H22.4033V20.4522C22.395 20.8769 22.7811 21.263 23.1964 21.263C23.6206 21.263 24.0103 20.8769 23.9999 20.4522V12.7492C23.9999 12.6939 23.991 12.5791 23.9613 12.4957L22.1289 7.044V0.801913C22.1289 0.471652 21.856 0.00156522 21.3359 0.00156522H2.66387V0ZM3.46734 1.60174H20.5324V3.51287C20.1208 3.30009 19.6637 3.19018 19.2004 3.19252H14.1353C13.2933 3.19252 12.5388 3.55096 11.9999 4.116C11.7252 3.8252 11.3943 3.59335 11.0271 3.43458C10.66 3.27582 10.2644 3.19346 9.86439 3.19252H4.79987C4.31778 3.19252 3.86439 3.30574 3.46787 3.51287V1.60174H3.46734ZM4.79934 4.7833H9.86439C10.6209 4.7833 11.1964 5.36765 11.1964 6.11217V6.38504H3.46734V6.11217C3.46734 5.36817 4.04282 4.7833 4.79934 4.7833ZM14.1353 4.7833H19.1999C19.9564 4.7833 20.5319 5.36765 20.5319 6.11217V6.38504H12.8033V6.11217C12.8033 5.36817 13.3788 4.7833 14.1353 4.7833V4.7833ZM3.24143 7.97635H20.7599L22.0919 11.9494H1.90734L3.24091 7.97635H3.24143ZM1.59639 13.5511H22.4033V17.0076H1.59639V13.5511Z" fill="#9C9C9C"/>
</g>
<g clip-path="url(#clip2)">
<path d="M23.3561 43.5317H20.3122V34.6927C20.3122 34.4 20.2537 33.9317 20.0195 33.5219C19.6098 32.761 18.9073 32.2927 17.8537 32.2927C16.8 32.2927 16.0976 32.761 15.7463 33.5805C15.5707 33.9317 15.5122 34.2244 15.5122 34.5171C14.4 34.7512 13.522 35.7463 13.522 36.9171V38.1463H18.439V36.8585C18.439 35.8049 17.7366 34.8683 16.7415 34.5756V34.5171C16.7415 34.3414 16.8 34.2244 16.8585 34.1073C17.0342 33.7561 17.3268 33.5219 17.8537 33.5219C18.3805 33.5219 18.7317 33.6975 18.9073 34.1073C19.0244 34.3414 19.0829 34.6341 19.0829 34.7512V43.5902H9.83415V43.0049C9.83415 42.3024 9.30732 41.7756 8.60488 41.7756H4.91708C4.21464 41.7756 3.68781 42.3024 3.68781 43.0049V43.5902H0.936589C0.585369 43.5902 0.292686 43.8829 0.292686 44.1756C0.292686 44.5268 0.585369 44.761 0.936589 44.761H1.22927V48.3902C1.22927 50.8488 3.10244 52.8975 5.56098 53.2488V54.478C5.56098 54.8293 5.85366 55.0634 6.14635 55.0634H8.60488C8.9561 55.0634 9.19025 54.7707 9.19025 54.478V53.2488H14.7512V54.478C14.7512 54.8293 15.0439 55.0634 15.3366 55.0634H17.7951C18.1463 55.0634 18.3805 54.7707 18.3805 54.478V53.2488C20.839 52.9561 22.7122 50.9073 22.7122 48.3902V44.761H23.3561C23.7073 44.761 24 44.4683 24 44.1756C24 43.8244 23.7073 43.5317 23.3561 43.5317V43.5317ZM17.2098 36.8585H14.7512C14.7512 36.2146 15.2781 35.6292 15.9805 35.6292C16.6829 35.6292 17.2098 36.1561 17.2098 36.8585V36.8585ZM4.91708 42.9463H8.60488V45.9902H4.91708V42.9463V42.9463ZM4.91708 47.2195H8.60488V47.8049H4.91708V47.2195V47.2195ZM8.01952 53.8927H6.79025V53.3073H8.01952V53.8927ZM17.2098 53.8927H15.9805V53.3073H17.2098V53.8927ZM21.5415 48.3902C21.5415 50.3805 19.9024 52.0195 17.8537 52.0195H6.14635C4.09756 52.0195 2.45854 50.3805 2.45854 48.3902V44.761H3.68781V47.8049C3.68781 48.5073 4.21464 49.0341 4.91708 49.0341H8.60488C9.30732 49.0341 9.83415 48.5073 9.83415 47.8049V44.761H21.5415V48.3902V48.3902Z" fill="#9C9C9C"/>
</g>
<path d="M17.3333 83.4933L19.0667 80H21.3333C21.6807 80 21.9733 79.7333 22 79.386L22.64 70.5593C23.4147 70.2933 24 69.5473 24 68.6667C24 67.5733 23.0933 66.6667 22 66.6667H20C20 66.2933 19.7067 66 19.3333 66H18C17.6267 66 17.3333 66.2933 17.3333 66.6667H15.3613C14.268 66.6667 13.3613 67.5733 13.3613 68.6667C13.3613 69.546 13.9213 70.2933 14.7213 70.56L15.3067 78.6667H13.892C13.9467 78.4527 13.9993 78.24 13.9993 78C13.9993 76.9067 13.0927 76 11.9993 76H2C0.906667 76 0 76.9067 0 78C0 78.8793 0.56 79.6267 1.36 79.8933C1.57333 83.0933 3.73333 85.8933 6.77333 86.9333L7.36 89.4933C7.414 89.786 7.68067 90 8 90H16.6667C17.04 90 17.3333 89.7067 17.3333 89.3333V83.4933V83.4933ZM15.3333 69.3333C14.96 69.3333 14.6667 69.04 14.6667 68.6667C14.6667 68.2933 14.96 68 15.3333 68H22C22.3733 68 22.6667 68.2933 22.6667 68.6667C22.6667 69.04 22.3733 69.3333 22 69.3333H15.3333ZM16.6127 78.6667L16.0527 70.6667H21.2793L20.7193 78.6667H16.6127ZM16 88.6667H8.53333L8 86.2667C7.946 86.0267 7.76 85.8127 7.51933 85.76C4.88067 85.014 2.95933 82.6933 2.69267 80H17.6L16.0807 83.04C16.0254 83.1277 15.9973 83.2297 16 83.3333V88.6667ZM1.33333 78C1.33333 77.6267 1.62667 77.3333 2 77.3333H12C12.3733 77.3333 12.6667 77.6267 12.6667 78C12.6667 78.3733 12.3733 78.6667 12 78.6667H2C1.62667 78.6667 1.33333 78.3733 1.33333 78Z" fill="#9C9C9C"/>
<defs>
<clipPath id="clip0">
<rect width="24" height="22.7368" fill="white" transform="translate(0 101)"/>
</clipPath>
<clipPath id="clip1">
<rect width="24" height="21.3913" fill="white"/>
</clipPath>
<clipPath id="clip2">
<rect width="24" height="23.4146" fill="white" transform="translate(0 32)"/>
</clipPath>
</defs>
</svg>
