<?xml version="1.0" encoding="iso-8859-1"?>
<!-- Generator: Adobe Illustrator 19.0.0, SVG Export Plug-In . SVG Version: 6.00 Build 0)  -->
<svg version="1.1" id="Capa_1" xmlns="http://www.w3.org/2000/svg" xmlns:xlink="http://www.w3.org/1999/xlink" x="0px" y="0px"
	 viewBox="0 0 512 512" style="enable-background:new 0 0 512 512;" xml:space="preserve">
<path style="fill:#E0701E;" d="M53.898,210.504c-13.708,0-27.42-5.179-37.914-15.556c-21.143-20.907-21.336-55.119-0.428-76.262
	c3.006-3.041,7.908-3.068,10.949-0.061c3.04,3.006,3.068,7.909,0.061,10.949c-14.904,15.072-14.767,39.46,0.305,54.364
	c7.248,7.168,16.839,11.107,27.023,11.107c0.075,0,0.148-0.001,0.223-0.001c10.268-0.057,19.898-4.11,27.118-11.412
	c3.006-3.04,7.908-3.069,10.949-0.061c3.04,3.006,3.068,7.909,0.061,10.949C81.716,205.169,67.808,210.504,53.898,210.504z"/>
<path style="fill:#FF9F50;" d="M512,202.424v77.956c0,2.807-1.888,5.263-4.601,5.985l-36.083,9.604c0,0,0,0.01-0.01,0.021
	c-11.149,32.012-31.847,60.246-59.11,82.079v81.522c0,3.421-2.773,6.194-6.194,6.194h-57.087c-3.421,0-6.194-2.773-6.194-6.194
	v-44.875c-21.131,6.565-43.811,10.137-67.441,10.137c-23.629,0-46.309-3.572-67.441-10.137v44.875c0,3.421-2.773,6.194-6.194,6.194
	H144.56c-3.421,0-6.194-2.773-6.194-6.194V378.07c-16.187-12.966-30.061-28.182-40.993-45.112
	c-17.405-26.943-27.366-58.202-27.366-91.556c0-101.321,91.906-183.452,205.275-183.452c35.171,0,68.267,7.908,97.192,21.834
	C388.988,51.08,423.992,38.89,454.58,50.68c3.453,1.331,5.041,5.315,3.366,8.614l-30.129,59.346
	c19.583,19.428,34.593,42.603,43.502,68.194l36.083,9.604C510.112,197.161,512,199.617,512,202.424z"/>
<path style="fill:#FFC38D;" d="M349.339,70.266c-18.076-4.656-37.173-7.154-56.932-7.154c-99.515,0-199.143,78.91-221.998,166.728
	c6.679-95.933,95.85-171.89,204.872-171.89C301.398,57.951,326.37,62.307,349.339,70.266z"/>
<path style="fill:#E0701E;" d="M471.306,295.991c-11.149,32.012-31.847,60.246-59.11,82.079v81.522c0,3.421-2.773,6.194-6.194,6.194
	h-57.087c-3.421,0-6.194-2.773-6.194-6.194v-44.875c-21.131,6.565-43.811,10.137-67.441,10.137
	c-23.629,0-46.309-3.572-67.441-10.137v44.875c0,3.421-2.773,6.194-6.194,6.194H144.56c-3.421,0-6.194-2.773-6.194-6.194V378.07
	c-16.187-12.966-30.061-28.182-40.993-45.112C322.117,470.978,469.655,297.932,471.306,295.991z"/>
<path style="fill:#1F4C68;" d="M191.93,153.998c-6.289,0-12.413-3.238-15.826-9.054c-5.126-8.732-2.203-19.965,6.529-25.09
	c27.573-16.186,59.598-24.742,92.616-24.742c10.125,0,18.332,8.208,18.332,18.332s-8.208,18.332-18.332,18.332
	c-26.497,0-52.104,6.81-74.054,19.695C198.278,153.185,195.083,153.998,191.93,153.998z"/>
<circle style="fill:#385F82;" cx="394.84" cy="193.03" r="12.904"/>
<g>
	<path style="fill:#E0701E;" d="M140.349,303.733h-0.153c-4.276,0-7.742-3.466-7.742-7.742s3.466-7.742,7.742-7.742h0.153
		c4.276,0,7.742,3.466,7.742,7.742S144.626,303.733,140.349,303.733z"/>
	<path style="fill:#E0701E;" d="M140.349,277.851h-0.153c-4.276,0-7.742-3.466-7.742-7.742s3.466-7.742,7.742-7.742h0.153
		c4.276,0,7.742,3.466,7.742,7.742S144.626,277.851,140.349,277.851z"/>
	<path style="fill:#E0701E;" d="M164.284,303.733h-0.153c-4.276,0-7.742-3.466-7.742-7.742s3.466-7.742,7.742-7.742h0.153
		c4.276,0,7.742,3.466,7.742,7.742S168.56,303.733,164.284,303.733z"/>
</g>
<g>
</g>
<g>
</g>
<g>
</g>
<g>
</g>
<g>
</g>
<g>
</g>
<g>
</g>
<g>
</g>
<g>
</g>
<g>
</g>
<g>
</g>
<g>
</g>
<g>
</g>
<g>
</g>
<g>
</g>
</svg>
